<?xml version="1.0" encoding="UTF-8"?>
<svg width="256px" height="256px" viewBox="0 0 256 256" version="1.1" xmlns="http://www.w3.org/2000/svg" xmlns:xlink="http://www.w3.org/1999/xlink">
    <title>Artboard</title>
    <g id="Artboard" stroke="none" stroke-width="1" fill="none" fill-rule="evenodd">
        <path d="M116.995683,82.9058505 L116.995683,31.5651595 L30.8028777,89.0409016 L69.294964,114.780439 L116.995683,82.9058505 Z M233.991367,146.424387 L233.991367,109.614081 L206.457554,128.019234 L233.991367,146.424387 Z M256,166.997566 C256,167.504977 255.953957,167.966259 255.907914,168.427541 C255.907914,168.612053 255.861871,168.750438 255.815827,168.888823 C255.750863,169.393553 255.627242,169.888947 255.447482,170.364925 C255.355396,170.641694 255.263309,170.918464 255.171223,171.149105 C255.079137,171.333618 254.98705,171.51813 254.941007,171.702643 C254.802878,171.933284 254.710791,172.210053 254.572662,172.440694 C254.480576,172.625207 254.388489,172.763592 254.25036,172.948105 C254.11223,173.178746 253.928058,173.409387 253.789928,173.640028 C253.651799,173.824541 253.559712,173.962925 253.421583,174.10131 C253.23741,174.285823 253.053237,174.516464 252.869065,174.700976 C252.730935,174.839361 252.592806,174.977746 252.408633,175.11613 C252.22446,175.300643 251.994245,175.485156 251.764029,175.62354 C251.579856,175.761925 251.441727,175.90031 251.257554,175.992566 C251.211511,176.038694 251.119424,176.084823 251.073381,176.130951 L134.077698,254.179872 C132.235971,255.425333 130.117986,256.025 128,256.025 C125.835971,256.025 123.717986,255.379205 121.876259,254.179872 L4.88057554,176.177079 C4.83453237,176.130951 4.74244604,176.084823 4.69640288,176.038694 L4.18992806,175.669669 C3.95971223,175.485156 3.77553957,175.346771 3.59136691,175.162258 C3.45323741,175.023874 3.31510791,174.885489 3.13093525,174.747105 C2.94676259,174.562592 2.76258993,174.378079 2.57841727,174.147438 C2.44182487,174.005276 2.31852725,173.850869 2.21007194,173.686156 C2.02589928,173.455515 1.88776978,173.224874 1.74964029,172.994233 C1.65755396,172.80972 1.51942446,172.671335 1.42733813,172.486823 C1.28920863,172.256182 1.15107914,171.979412 1.05899281,171.748771 C0.966906475,171.564259 0.874820144,171.379746 0.828776978,171.195233 C0.736690647,170.918464 0.644604317,170.641694 0.552517986,170.411053 C0.50647482,170.226541 0.414388489,170.042028 0.368345324,169.857515 C0.276258993,169.534618 0.230215827,169.257848 0.184172662,168.934951 C0.138129496,168.796566 0.138129496,168.612053 0.0920863309,168.473669 C0.0460431655,168.012387 -5.68434189e-14,167.504977 -5.68434189e-14,167.043695 L-5.68434189e-14,88.9947734 C-5.68434189e-14,88.5334914 0.0460431655,88.0260811 0.0920863309,87.5647991 C0.138129496,87.4264145 0.138129496,87.2419017 0.184172662,87.1035171 C0.249137346,86.598787 0.372757628,86.1033926 0.552517986,85.6274145 C0.644604317,85.3506453 0.736690647,85.0738761 0.828776978,84.8432351 C0.920863309,84.6587222 1.01294964,84.4742094 1.05899281,84.2896966 C1.15107914,84.0590556 1.28920863,83.7822864 1.42733813,83.5516453 C1.51942446,83.3671325 1.61151079,83.2287479 1.74964029,83.0442351 C2.02589928,82.6290813 2.30215827,82.2600556 2.57841727,81.89103 C2.76258993,81.7065172 2.94676259,81.4758762 3.13093525,81.2913633 C3.26906475,81.1529787 3.40719424,81.0145941 3.59136691,80.8762095 C3.77553957,80.6916967 4.0057554,80.5071839 4.18992806,80.3687993 C4.37410072,80.2304147 4.51223022,80.09203 4.69640288,79.9997736 C4.74244604,79.9536454 4.83453237,79.9075172 4.88057554,79.861389 L121.876259,1.85859611 C125.559712,-0.586198703 130.394245,-0.586198703 134.077698,1.85859611 L251.073381,79.861389 C251.119424,79.9075172 251.211511,79.9536454 251.257554,79.9997736 L251.764029,80.3687993 L252.408633,80.8762095 C252.546763,81.0145941 252.684892,81.1529787 252.869065,81.2913633 C253.053237,81.4758762 253.23741,81.660389 253.421583,81.89103 C253.743885,82.2600556 254.020144,82.6290813 254.25036,83.0442351 C254.342446,83.2287479 254.480576,83.3671325 254.572662,83.5516453 C254.710791,83.7822864 254.848921,84.0129274 254.941007,84.2896966 C255.033094,84.4742094 255.12518,84.6587222 255.171223,84.8432351 C255.263309,85.1200043 255.355396,85.3967735 255.447482,85.6274145 C255.493525,85.8119273 255.585612,85.9964402 255.631655,86.180953 C255.723741,86.5038504 255.769784,86.7806196 255.815827,87.1035171 C255.861871,87.2419017 255.861871,87.4264145 255.907914,87.5647991 C255.953957,88.0260811 256,88.5334914 256,88.9947734 L256,166.997566 L256,166.997566 Z M139.004317,173.132617 L139.004317,224.473308 L225.197122,166.997566 L186.705036,141.258029 L139.004317,173.132617 Z M22.0086331,109.614081 L22.0086331,146.424387 L49.542446,128.019234 L22.0086331,109.614081 Z M128,102.002927 L89.0935252,128.019234 L128,154.035541 L166.906475,128.019234 L128,102.002927 Z M225.197122,89.0409016 L139.004317,31.5651595 L139.004317,82.9058505 L186.705036,114.780439 L225.197122,89.0409016 Z M69.294964,141.258029 L30.8028777,166.997566 L116.995683,224.473308 L116.995683,173.132617 L69.294964,141.258029 L69.294964,141.258029 Z" id="Shape" fill="#000000" fill-rule="nonzero"></path>
    </g>
</svg>