<?xml version="1.0" encoding="UTF-8"?>
<svg width="512px" height="384px" viewBox="0 0 512 384" version="1.1" xmlns="http://www.w3.org/2000/svg" xmlns:xlink="http://www.w3.org/1999/xlink">
    <title>Artboard</title>
    <g id="Artboard" stroke="none" stroke-width="1" fill="none" fill-rule="evenodd">
        <g id="erthbound-header-logo" fill="#000000" fill-rule="nonzero">
            <path d="M256,0 C114.614857,0 0,85.9611429 0,192 C0,298.038857 114.614857,384 256,384 C397.385143,384 512,298.038857 512,192 C512,85.9611429 397.385143,0 256,0 Z M32.8108408,204.000392 L87.7118694,204.000392 C88.9333551,223.923722 92.9478531,242.151967 99.1827592,258.522122 L50.3975184,258.522122 C40.6287673,241.605747 34.6362776,223.235657 32.8108408,204.000392 Z M334.973388,180.000392 C333.769665,160.711837 330.720653,142.441273 326.593306,125.478661 L379.038824,125.478661 C386.019788,141.578449 390.81169,159.733029 392.256784,180.000392 L334.973388,180.000392 Z M215.646041,258.522122 C211.129992,239.821322 208.913763,221.567216 208.503118,204.000392 L303.497927,204.000392 C303.088327,221.567216 300.871053,239.821322 296.353959,258.522122 L215.646041,258.522122 Z M289.3824,282.522122 C281.880033,304.122514 271.020408,326.141388 255.996865,348.208065 C240.975412,326.141388 230.117878,304.122514 222.616555,282.522122 L289.3824,282.522122 Z M208.938841,180.000392 C210.206302,160.601339 213.476833,142.321371 217.819429,125.478661 L294.180571,125.478661 C298.524212,142.321371 301.793698,160.601339 303.062204,180.000392 L208.938841,180.000392 Z M225.010416,101.479445 C235.01009,72.2021878 247.364963,49.1026286 255.99791,34.8805224 C264.631902,49.1026286 276.98782,72.2021878 286.989584,101.479445 L225.010416,101.479445 Z M319.811918,101.479445 C309.603265,69.7508571 296.49502,44.2634449 286.764931,27.7906286 C298.857535,34.2441796 339.032816,58.0976327 366.4384,101.479445 L319.811918,101.479445 Z M225.23089,27.7890612 C215.5008,44.2618776 202.394645,69.7500735 192.187037,101.479445 L145.555331,101.479445 C172.964049,58.0937143 213.142465,34.2402612 225.23089,27.7890612 Z M185.406694,125.479445 C181.279347,142.442057 178.23138,160.71262 177.027657,180.001176 L119.737992,180.001176 C121.183086,159.734596 125.973943,141.579233 132.955951,125.479445 L185.406694,125.479445 Z M87.746351,180.000392 L32.8108408,180.000392 C34.6362776,160.765127 40.6277224,142.396604 50.3964735,125.478661 L99.4042776,125.478661 C93.1233959,141.846465 89.0294857,160.062171 87.746351,180.000392 Z M119.721273,204.000392 L176.5888,204.000392 C176.952424,221.596996 178.926237,239.826808 183.110008,258.522122 L132.972669,258.522122 C125.932147,242.3808 121.124571,224.220735 119.721273,204.000392 Z M189.736751,282.522122 C197.586024,306.959412 209.244996,331.935869 226.040686,357.012637 C214.706678,350.926629 173.505306,326.620212 145.569959,282.522122 L189.736751,282.522122 Z M285.920653,357.06671 C302.737241,331.971918 314.406661,306.977437 322.263249,282.522122 L366.74978,282.522122 C338.898024,326.845127 297.520065,350.950139 285.920653,357.06671 Z M328.891037,258.522122 C333.075853,239.826808 335.049665,221.596996 335.412245,204.000392 L392.29022,204.000392 C390.91409,224.257567 386.183837,242.412931 379.246759,258.522122 L328.891037,258.522122 Z M424.281861,204.000392 L479.189159,204.000392 C477.362678,223.235657 471.371233,241.604963 461.602482,258.522122 L412.812016,258.522122 C419.046922,242.151967 423.060376,223.923722 424.281861,204.000392 Z M424.248424,180.000392 C422.96529,160.061388 418.87138,141.846465 412.590498,125.478661 L461.604571,125.478661 C471.374367,142.39582 477.364767,160.764343 479.190204,180.000392 L424.248424,180.000392 Z M444.404506,101.479445 L401.310824,101.479445 C387.007216,75.6385959 368.359967,55.1972571 350.811951,40.0112327 C389.198367,53.5374367 421.635135,74.916049 444.404506,101.479445 Z M161.1776,40.0143673 C143.631673,55.2003918 124.986514,75.6409469 110.683951,101.479445 L67.5954939,101.479445 C90.3627755,74.9176163 122.796408,53.5413551 161.1776,40.0143673 Z M67.5965388,282.522122 L110.423771,282.522122 C124.511086,308.098873 142.89502,328.472033 160.319739,343.675298 C122.31471,330.131853 90.193502,308.883331 67.5965388,282.522122 Z M351.687576,343.672163 C369.108114,328.470465 387.488914,308.097306 401.573094,282.522122 L444.403461,282.522122 C421.808588,308.881763 389.689469,330.128718 351.687576,343.672163 Z" id="Shape"></path>
        </g>
    </g>
</svg>