<?xml version="1.0" encoding="utf-8"?>
<!-- Generator: Adobe Illustrator 26.5.0, SVG Export Plug-In . SVG Version: 6.00 Build 0)  -->
<svg version="1.1" id="Layer_1" xmlns="http://www.w3.org/2000/svg" xmlns:xlink="http://www.w3.org/1999/xlink" x="0px" y="0px"
	 viewBox="0 0 512 256" style="enable-background:new 0 0 512 256;" xml:space="preserve">
<g id="Artboard">
	<g id="erthbound-header-logo">
		<path id="Shape" d="M256,0C114.6,0,0,57.3,0,128s114.6,128,256,128s256-57.3,256-128S397.4,0,256,0z M32.8,136h54.9
			c1.2,13.3,5.2,25.4,11.5,36.3H50.4C40.6,161.1,34.6,148.8,32.8,136z M335,120c-1.2-12.9-4.3-25-8.4-36.3H379
			c7,10.7,11.8,22.8,13.2,36.3H335z M215.6,172.3c-4.5-12.5-6.7-24.6-7.1-36.3h95c-0.4,11.7-2.6,23.9-7.1,36.3H215.6z M289.4,188.3
			c-7.5,14.4-18.4,29.1-33.4,43.8c-15-14.7-25.9-29.4-33.4-43.8H289.4z M208.9,120c1.3-12.9,4.5-25.1,8.9-36.3h76.4
			c4.3,11.2,7.6,23.4,8.9,36.3H208.9z M225,67.7c10-19.5,22.4-34.9,31-44.4c8.6,9.5,21,24.9,31,44.4H225z M319.8,67.7
			c-10.2-21.2-23.3-38.1-33-49.1c12.1,4.3,52.3,20.2,79.7,49.1H319.8z M225.2,18.5c-9.7,11-22.8,28-33,49.1h-46.6
			C173,38.7,213.1,22.8,225.2,18.5z M185.4,83.7c-4.1,11.3-7.2,23.5-8.4,36.3h-57.3c1.4-13.5,6.2-25.6,13.2-36.3H185.4z M87.7,120
			H32.8c1.8-12.8,7.8-25.1,17.6-36.3h49C93.1,94.6,89,106.7,87.7,120z M119.7,136h56.9c0.4,11.7,2.3,23.9,6.5,36.3H133
			C125.9,161.6,121.1,149.5,119.7,136z M189.7,188.3c7.8,16.3,19.5,32.9,36.3,49.7c-11.3-4.1-52.5-20.3-80.5-49.7H189.7z M285.9,238
			c16.8-16.7,28.5-33.4,36.3-49.7h44.5C338.9,217.9,297.5,234,285.9,238z M328.9,172.3c4.2-12.5,6.2-24.6,6.5-36.3h56.9
			c-1.4,13.5-6.1,25.6-13,36.3H328.9z M424.3,136h54.9c-1.8,12.8-7.8,25.1-17.6,36.3h-48.8C419,161.4,423.1,149.3,424.3,136z
			 M424.2,120c-1.3-13.3-5.4-25.4-11.7-36.3h49c9.8,11.3,15.8,23.5,17.6,36.3H424.2z M444.4,67.7h-43.1c-14.3-17.2-33-30.9-50.5-41
			C389.2,35.7,421.6,49.9,444.4,67.7z M161.2,26.7c-17.5,10.1-36.2,23.8-50.5,41H67.6C90.4,49.9,122.8,35.7,161.2,26.7z M67.6,188.3
			h42.8c14.1,17.1,32.5,30.6,49.9,40.8C122.3,220.1,90.2,205.9,67.6,188.3z M351.7,229.1c17.4-10.1,35.8-23.7,49.9-40.8h42.8
			C421.8,205.9,389.7,220.1,351.7,229.1z"/>
	</g>
</g>
</svg>
