<?xml version="1.0" encoding="UTF-8"?>
<svg width="256px" height="256px" viewBox="0 0 256 256" version="1.1" xmlns="http://www.w3.org/2000/svg" xmlns:xlink="http://www.w3.org/1999/xlink">
    <title>Artboard</title>
    <g id="Artboard" stroke="none" stroke-width="1" fill="none" fill-rule="evenodd">
        <rect id="Rectangle" fill-rule="nonzero" x="0" y="0" width="256" height="256"></rect>
        <path d="M168.885521,-0.11 L214.41,45.3996429 L214.41,255.89 L42.41,255.89 L42.41,-0.11 L168.885521,-0.11 Z M147.272266,198.717771 C145.412356,198.701374 143.564066,198.989946 141.797709,199.571805 C140.237263,200.076214 138.784385,200.866881 137.514,201.903927 C136.339503,202.861149 135.373313,204.053037 134.678438,205.402109 C133.995307,206.751181 133.64671,208.243384 133.656068,209.754325 C133.630314,211.070543 133.871311,212.377391 134.364959,213.595046 C134.828229,214.646146 135.471597,215.610456 136.267033,216.438663 C137.062468,217.278642 137.970263,218.00595 138.959871,218.601888 C139.935464,219.193147 140.960229,219.697561 142.024703,220.108144 L147.356535,222.440266 L150.023619,223.521878 C150.762935,223.833905 151.467094,224.225737 152.122201,224.687939 C152.667345,225.079729 153.121218,225.584161 153.455773,226.168369 C153.79267,226.797167 153.95878,227.503386 153.937724,228.216633 C153.991508,229.697063 153.285013,231.104817 152.066076,231.942393 C150.440047,232.965318 148.533302,233.441599 146.619549,233.307863 C144.663631,233.30552 142.728856,232.887843 140.946088,232.083121 C139.123612,231.283023 137.439128,230.199068 135.953488,228.868796 L135.954,228.869 L131.899052,233.59172 C133.70937,235.304145 135.808989,236.679358 138.099058,237.654364 L138.592666,237.857145 C141.100615,238.858964 143.777102,239.370437 146.476948,239.365745 C148.54768,239.393914 150.608829,239.077143 152.576425,238.427262 C154.235155,237.878288 155.774578,237.019569 157.115158,235.895732 C158.313013,234.882231 159.279262,233.61995 159.95072,232.198141 L160.112264,231.835346 C160.680397,230.49478 160.963661,229.048444 160.942215,227.590297 C160.967909,226.292819 160.757374,225.000086 160.317533,223.777686 C159.912778,222.728928 159.316186,221.764619 158.56052,220.934069 C157.769756,220.070665 156.864357,219.322222 155.865346,218.714566 C154.782125,218.055255 153.645122,217.492172 152.461281,217.037009 L147.328293,214.817506 L144.775844,213.794575 C144.017781,213.505973 143.294876,213.135265 142.618746,212.684793 C142.03623,212.302313 141.53555,211.809635 141.144846,211.234815 C140.777535,210.657611 140.590368,209.984246 140.606745,209.299169 C140.562305,207.940727 141.229091,206.657363 142.363759,205.915947 C143.80963,205.022019 145.491778,204.597357 147.185605,204.691205 C148.872424,204.688862 150.540497,205.026716 152.093995,205.688369 C153.567956,206.31008 154.952916,207.133602 156.20695,208.133108 L156.205,208.132 L159.779489,203.696443 C158.248299,202.273563 156.4919,201.11256 154.585665,200.26143 L154.106029,200.055131 C151.939708,199.161204 149.616528,198.708387 147.272266,198.717771 Z M122.737198,199.400719 L100.045632,199.400719 L100.045632,205.090295 L115.929189,205.090295 L115.929189,225.00234 C116.151451,227.2756 115.536173,229.551443 114.19793,231.400238 C112.770805,232.763377 110.828962,233.446124 108.866097,233.279546 C107.413219,233.260746 105.990766,232.847814 104.753142,232.082973 C103.281577,231.18203 102.015864,229.980772 101.037935,228.556621 L96.8407709,232.824389 C97.5636764,233.887262 98.4340379,234.844484 99.42131,235.668006 C100.336052,236.465701 101.344406,237.143781 102.427627,237.688101 C103.473414,238.201879 104.577716,238.584335 105.717056,238.825992 C106.769851,239.074688 107.843728,239.21781 108.922277,239.253003 C111.138069,239.311625 113.341882,238.945661 115.419442,238.171391 C117.050082,237.573105 118.516975,236.599425 119.700816,235.325431 C120.786372,234.06315 121.579471,232.578035 122.028667,230.975558 C122.51296,229.244065 122.751595,227.453891 122.737558,225.654347 L122.737198,199.400719 Z M165.738157,8.02666167 L50.522473,8.02666167 L50.522473,183.842719 L206.297527,183.840373 L206.299324,48.7030448 L165.738157,48.7030448 L165.738157,8.02666167 Z M148.267621,84.5691625 C150.239889,86.253746 151.250579,88.8134457 150.962795,91.3965099 L150.962795,94.2401268 C150.962795,95.0354794 150.962795,95.8050651 150.735855,96.5159693 C150.508916,97.2268735 150.565065,97.9659473 150.508916,98.7073034 C150.462124,99.3231981 150.493318,99.9993643 150.505016,100.734446 L150.508916,101.180209 C150.513595,101.717489 150.649292,102.245364 150.904304,102.716977 C151.217806,103.268337 151.666978,103.728196 152.209786,104.054337 C152.974796,104.516539 153.807724,104.852033 154.678026,105.049099 C155.953083,105.340031 157.256229,105.492531 158.564047,105.504261 L158.564047,111.505864 C157.256229,111.519942 155.953083,111.672443 154.678026,111.961027 C153.807724,112.160454 152.974796,112.498307 152.209786,112.955788 C151.667008,113.281912 151.217842,113.741771 150.904304,114.293148 C150.649292,114.764738 150.513599,115.292655 150.508916,115.829917 L150.508916,118.305168 C150.508916,119.044242 150.508916,119.783256 150.735855,120.496502 C150.962795,121.207407 150.906645,121.97459 150.962795,122.772345 C151.018944,123.567697 150.962795,124.47801 150.962795,125.615962 C151.000228,127.018967 150.777972,128.417351 150.310084,129.738254 C149.902999,130.817524 149.194102,131.756006 148.267621,132.441083 C147.231177,133.175472 146.052068,133.67988 144.807437,133.921513 C143.360136,134.204816 141.891329,134.356991 140.418269,134.376461 L134.822178,134.376676 L134.822178,128.973359 L136.92076,128.971132 C137.868263,128.987555 138.818162,128.940631 139.758658,128.828014 C140.34823,128.771705 140.91908,128.586357 141.431462,128.288385 C141.836206,128.030301 142.138017,127.638505 142.283078,127.178603 C142.456203,126.559235 142.533411,125.916322 142.510017,125.273469 L142.510017,115.914411 C142.339227,114.082013 142.86563,112.254299 143.983918,110.795012 C145.310422,109.610151 146.980891,108.88285 148.749584,108.718638 L148.749584,108.491054 C146.980891,108.326818 145.310422,107.59948 143.983918,106.41468 C142.8656,104.955332 142.339203,103.127619 142.510017,101.295281 L142.510017,91.9362229 C142.528734,91.3027397 142.451528,90.6692565 142.283078,90.0592579 C142.140365,89.5900167 141.840901,89.1888267 141.431462,88.9213667 C140.92144,88.614013 140.350578,88.4192771 139.758658,88.3512379 C138.820498,88.1916988 137.872995,88.0978446 136.92076,88.0673447 L134.707543,88.0673447 L134.707543,82.6640281 L139.758658,82.6640281 C142.720534,82.4317529 145.684746,83.09573 148.267621,84.5691625 Z M117.068212,82.8046989 L122.032782,82.8046989 L122.032782,88.0672281 L119.903774,88.0672281 C118.956271,88.0531506 118.008708,88.1000747 117.068212,88.210346 C116.478639,88.269001 115.90779,88.4520029 115.395407,88.7499749 C114.995342,89.0197893 114.702927,89.4233398 114.571882,89.8878661 C114.401092,90.4978647 114.326226,91.1313479 114.344942,91.7648311 L114.344942,101.123889 C114.515732,102.956287 113.989329,104.786343 112.871042,106.243288 C111.542141,107.428149 109.874068,108.15545 108.105375,108.319662 L108.105375,108.547246 C109.874068,108.711482 111.544537,109.43882 112.871042,110.62362 C113.989359,112.082968 114.515756,113.913023 114.344942,115.745362 L114.344942,125.102073 C114.321546,125.744926 114.398752,126.387779 114.571882,127.00955 C114.709917,127.46237 115.000019,127.854154 115.395407,128.11699 C115.907772,128.414956 116.478627,128.60031 117.068212,128.658961 C118.008708,128.76923 118.956211,128.816158 119.903774,128.799736 L122.116991,128.799736 L122.116991,134.203053 L117.068212,134.205399 C115.383728,134.228861 113.70158,134.07636 112.047522,133.750237 C110.805227,133.564888 109.616715,133.119096 108.559249,132.441046 C107.632768,131.755969 106.923877,130.817486 106.516786,129.738216 C106.067591,128.412629 105.864075,127.014245 105.9202,125.613578 L105.920272,122.77 C105.920272,121.915966 105.985783,121.158153 106.119134,120.494157 C106.119134,119.783253 106.261847,119.04418 106.317996,118.302823 C106.374146,117.56375 106.317996,116.737885 106.317996,115.827572 C106.313317,115.292638 106.177619,114.764763 105.920272,114.293149 C105.613789,113.746481 105.176285,113.286616 104.645216,112.955789 C103.891885,112.491239 103.068359,112.155752 102.205065,111.961028 C100.930008,111.672444 99.6268619,111.519938 98.3190438,111.505865 L98.3190438,105.588711 C99.6947204,105.593403 101.06333,105.440902 102.403909,105.133548 C103.267203,104.941161 104.090728,104.60565 104.844059,104.138787 C105.372799,103.807973 105.812645,103.348119 106.119116,102.801427 C106.376469,102.329837 106.512162,101.801921 106.51684,101.267001 L106.51684,98.7917494 C106.51684,98.0526757 106.420916,97.3206894 106.233751,96.6004153 C106.233751,95.8801413 106.16824,95.1223279 106.034889,94.3245728 C105.901532,93.5292202 105.901532,92.5790254 106.034889,91.4809559 C105.995116,90.0779471 106.217376,88.6795632 106.6876,87.3563179 C107.094685,86.277048 107.803582,85.3385656 108.730063,84.6534884 C109.764171,83.921442 110.94328,83.417034 112.190247,83.175401 C113.799864,82.8868169 115.4329,82.7648172 117.068212,82.8046989 Z" id="Combined-Shape" fill="#000000" fill-rule="nonzero"></path>
    </g>
</svg>